<?xml version="1.0" encoding="UTF-8" standalone="no"?><svg xmlns="http://www.w3.org/2000/svg" xmlns:xlink="http://www.w3.org/1999/xlink" contentScriptType="application/ecmascript" contentStyleType="text/css" height="463px" preserveAspectRatio="none" style="width:1165px;height:463px;" version="1.1" viewBox="0 0 1165 463" width="1165px" zoomAndPan="magnify"><defs><filter height="300%" id="f1qjq3mpkohnif" width="300%" x="-1" y="-1"><feGaussianBlur result="blurOut" stdDeviation="2.0"/><feColorMatrix in="blurOut" result="blurOut2" type="matrix" values="0 0 0 0 0 0 0 0 0 0 0 0 0 0 0 0 0 0 .4 0"/><feOffset dx="4.0" dy="4.0" in="blurOut2" result="blurOut3"/><feBlend in="SourceGraphic" in2="blurOut3" mode="normal"/></filter></defs><g><rect fill="#DDDDDD" height="27.6094" rx="5" ry="5" style="stroke: #000000; stroke-width: 1.0;" width="423" x="8" y="8"/><text fill="#000000" font-family="sans-serif" font-size="14" lengthAdjust="spacingAndGlyphs" textLength="411" x="14" y="27.5332">♦ Composition relation  ♢ Aggregation relation  * Multiple relation</text><!--MD5=[bc580992a0121350dbeb037df29eb0ce]
cluster com.company.model--><polygon fill="#FFFFFF" filter="url(#f1qjq3mpkohnif)" points="22,68.6094,170,68.6094,177,92.2188,1143,92.2188,1143,451.6094,22,451.6094,22,68.6094" style="stroke: #000000; stroke-width: 1.5;"/><line style="stroke: #000000; stroke-width: 1.5;" x1="22" x2="177" y1="92.2188" y2="92.2188"/><text fill="#000000" font-family="sans-serif" font-size="14" font-weight="bold" lengthAdjust="spacingAndGlyphs" textLength="142" x="26" y="85.1426">com.company.model</text><!--MD5=[9a683f7fadc7a038892c4a1b8ffae219]
class InstanceAnswer--><rect fill="#FEFECE" filter="url(#f1qjq3mpkohnif)" height="89.5078" id="InstanceAnswer" style="stroke: #A80036; stroke-width: 1.5;" width="124" x="785" y="345.6094"/><ellipse cx="801.8" cy="361.6094" fill="#ADD1B2" rx="11" ry="11" style="stroke: #A80036; stroke-width: 1.0;"/><path d="M804.5656,357.4844 Q804.7219,357.2656 804.9094,357.1563 Q805.0969,357.0469 805.3156,357.0469 Q805.6906,357.0469 805.925,357.3047 Q806.1594,357.5625 806.1594,358.1719 L806.1594,359.625 Q806.1594,360.2344 805.925,360.5 Q805.6906,360.7656 805.3156,360.7656 Q804.9719,360.7656 804.7688,360.5625 Q804.5656,360.375 804.4563,359.8594 Q804.4094,359.5 804.2219,359.3125 Q803.8938,358.9375 803.2844,358.7188 Q802.675,358.5 802.05,358.5 Q801.2844,358.5 800.6516,358.8281 Q800.0188,359.1563 799.5266,359.9063 Q799.0344,360.6563 799.0344,361.6875 L799.0344,362.7813 Q799.0344,364.0156 799.925,364.8359 Q800.8156,365.6563 802.4094,365.6563 Q803.3469,365.6563 804.0031,365.4063 Q804.3938,365.25 804.8156,364.8125 Q805.0813,364.5469 805.2297,364.4688 Q805.3781,364.3906 805.5813,364.3906 Q805.9094,364.3906 806.1672,364.6484 Q806.425,364.9063 806.425,365.25 Q806.425,365.5938 806.0813,366 Q805.5813,366.5781 804.7844,366.9063 Q803.7063,367.3594 802.4094,367.3594 Q800.8938,367.3594 799.6906,366.7344 Q798.7063,366.2344 798.0188,365.1641 Q797.3313,364.0938 797.3313,362.8125 L797.3313,361.6563 Q797.3313,360.3281 797.9484,359.1797 Q798.5656,358.0313 799.6594,357.4141 Q800.7531,356.7969 801.9875,356.7969 Q802.7219,356.7969 803.3703,356.9609 Q804.0188,357.125 804.5656,357.4844 Z "/><text fill="#000000" font-family="sans-serif" font-size="12" lengthAdjust="spacingAndGlyphs" textLength="88" x="816.2" y="366.5195">InstanceAnswer</text><line style="stroke: #A80036; stroke-width: 1.5;" x1="786" x2="908" y1="377.6094" y2="377.6094"/><ellipse cx="796" cy="388.6094" fill="none" rx="3" ry="3" style="stroke: #038048; stroke-width: 1.0;"/><text fill="#000000" font-family="sans-serif" font-size="11" lengthAdjust="spacingAndGlyphs" textLength="98" x="805" y="393.0283">persistenceId : Long</text><ellipse cx="796" cy="402.4453" fill="none" rx="3" ry="3" style="stroke: #038048; stroke-width: 1.0;"/><text fill="#000000" font-family="sans-serif" font-size="11" lengthAdjust="spacingAndGlyphs" textLength="78" x="805" y="406.8643">question : String</text><ellipse cx="796" cy="416.2813" fill="none" rx="3" ry="3" style="stroke: #038048; stroke-width: 1.0;"/><text fill="#000000" font-family="sans-serif" font-size="11" lengthAdjust="spacingAndGlyphs" textLength="75" x="805" y="420.7002">answer : String</text><line style="stroke: #A80036; stroke-width: 1.5;" x1="786" x2="908" y1="427.1172" y2="427.1172"/><path d="M831,216.6094 L831,242.9609 A0,0 0 0 0 831,242.9609 L964.861,242.9609 L883.642,345.4724 L972.861,242.9609 L1127,242.9609 A0,0 0 0 0 1127,242.9609 L1127,226.6094 L1117,216.6094 L831,216.6094 A0,0 0 0 0 831,216.6094 " fill="#FBFB77" filter="url(#f1qjq3mpkohnif)" style="stroke: #A80036; stroke-width: 1.0;"/><path d="M1117,216.6094 L1117,226.6094 L1127,226.6094 L1117,216.6094 " fill="#FBFB77" style="stroke: #A80036; stroke-width: 1.0;"/><text fill="#000000" font-family="sans-serif" font-size="13" lengthAdjust="spacingAndGlyphs" textLength="275" x="837" y="235.1045">Instance of an answer (question and its answer)</text><!--MD5=[57922e2f73496867c72be8bdc3c5ac9e]
class Instancequestionnaire--><rect fill="#FEFECE" filter="url(#f1qjq3mpkohnif)" height="75.6719" id="Instancequestionnaire" style="stroke: #A80036; stroke-width: 1.5;" width="160" x="636" y="191.6094"/><ellipse cx="653.25" cy="207.6094" fill="#ADD1B2" rx="11" ry="11" style="stroke: #A80036; stroke-width: 1.0;"/><path d="M656.0156,203.4844 Q656.1719,203.2656 656.3594,203.1563 Q656.5469,203.0469 656.7656,203.0469 Q657.1406,203.0469 657.375,203.3047 Q657.6094,203.5625 657.6094,204.1719 L657.6094,205.625 Q657.6094,206.2344 657.375,206.5 Q657.1406,206.7656 656.7656,206.7656 Q656.4219,206.7656 656.2188,206.5625 Q656.0156,206.375 655.9063,205.8594 Q655.8594,205.5 655.6719,205.3125 Q655.3438,204.9375 654.7344,204.7188 Q654.125,204.5 653.5,204.5 Q652.7344,204.5 652.1016,204.8281 Q651.4688,205.1563 650.9766,205.9063 Q650.4844,206.6563 650.4844,207.6875 L650.4844,208.7813 Q650.4844,210.0156 651.375,210.8359 Q652.2656,211.6563 653.8594,211.6563 Q654.7969,211.6563 655.4531,211.4063 Q655.8438,211.25 656.2656,210.8125 Q656.5313,210.5469 656.6797,210.4688 Q656.8281,210.3906 657.0313,210.3906 Q657.3594,210.3906 657.6172,210.6484 Q657.875,210.9063 657.875,211.25 Q657.875,211.5938 657.5313,212 Q657.0313,212.5781 656.2344,212.9063 Q655.1563,213.3594 653.8594,213.3594 Q652.3438,213.3594 651.1406,212.7344 Q650.1563,212.2344 649.4688,211.1641 Q648.7813,210.0938 648.7813,208.8125 L648.7813,207.6563 Q648.7813,206.3281 649.3984,205.1797 Q650.0156,204.0313 651.1094,203.4141 Q652.2031,202.7969 653.4375,202.7969 Q654.1719,202.7969 654.8203,202.9609 Q655.4688,203.125 656.0156,203.4844 Z "/><text fill="#000000" font-family="sans-serif" font-size="12" lengthAdjust="spacingAndGlyphs" textLength="123" x="667.75" y="212.5195">Instancequestionnaire</text><line style="stroke: #A80036; stroke-width: 1.5;" x1="637" x2="795" y1="223.6094" y2="223.6094"/><ellipse cx="647" cy="234.6094" fill="none" rx="3" ry="3" style="stroke: #038048; stroke-width: 1.0;"/><text fill="#000000" font-family="sans-serif" font-size="11" lengthAdjust="spacingAndGlyphs" textLength="98" x="656" y="239.0283">persistenceId : Long</text><ellipse cx="647" cy="248.4453" fill="none" rx="3" ry="3" style="stroke: #038048; stroke-width: 1.0;"/><text fill="#000000" font-family="sans-serif" font-size="11" lengthAdjust="spacingAndGlyphs" textLength="134" x="656" y="252.8643">questionnaire_name : String</text><line style="stroke: #A80036; stroke-width: 1.5;" x1="637" x2="795" y1="259.2813" y2="259.2813"/><path d="M610.5,104.6094 L610.5,130.9609 A0,0 0 0 0 610.5,130.9609 L712,130.9609 L716,191.4214 L720,130.9609 L821.5,130.9609 A0,0 0 0 0 821.5,130.9609 L821.5,114.6094 L811.5,104.6094 L610.5,104.6094 A0,0 0 0 0 610.5,104.6094 " fill="#FBFB77" filter="url(#f1qjq3mpkohnif)" style="stroke: #A80036; stroke-width: 1.0;"/><path d="M811.5,104.6094 L811.5,114.6094 L821.5,114.6094 L811.5,104.6094 " fill="#FBFB77" style="stroke: #A80036; stroke-width: 1.0;"/><text fill="#000000" font-family="sans-serif" font-size="13" lengthAdjust="spacingAndGlyphs" textLength="190" x="616.5" y="123.1045">Questionnaire filled out by a user</text><!--MD5=[fc7123defb831ecdd44b2d9bcef6cceb]
class Question--><rect fill="#FEFECE" filter="url(#f1qjq3mpkohnif)" height="89.5078" id="Question" style="stroke: #A80036; stroke-width: 1.5;" width="130" x="144" y="345.6094"/><ellipse cx="180.6" cy="361.6094" fill="#ADD1B2" rx="11" ry="11" style="stroke: #A80036; stroke-width: 1.0;"/><path d="M183.3656,357.4844 Q183.5219,357.2656 183.7094,357.1563 Q183.8969,357.0469 184.1156,357.0469 Q184.4906,357.0469 184.725,357.3047 Q184.9594,357.5625 184.9594,358.1719 L184.9594,359.625 Q184.9594,360.2344 184.725,360.5 Q184.4906,360.7656 184.1156,360.7656 Q183.7719,360.7656 183.5688,360.5625 Q183.3656,360.375 183.2563,359.8594 Q183.2094,359.5 183.0219,359.3125 Q182.6938,358.9375 182.0844,358.7188 Q181.475,358.5 180.85,358.5 Q180.0844,358.5 179.4516,358.8281 Q178.8188,359.1563 178.3266,359.9063 Q177.8344,360.6563 177.8344,361.6875 L177.8344,362.7813 Q177.8344,364.0156 178.725,364.8359 Q179.6156,365.6563 181.2094,365.6563 Q182.1469,365.6563 182.8031,365.4063 Q183.1938,365.25 183.6156,364.8125 Q183.8813,364.5469 184.0297,364.4688 Q184.1781,364.3906 184.3813,364.3906 Q184.7094,364.3906 184.9672,364.6484 Q185.225,364.9063 185.225,365.25 Q185.225,365.5938 184.8813,366 Q184.3813,366.5781 183.5844,366.9063 Q182.5063,367.3594 181.2094,367.3594 Q179.6938,367.3594 178.4906,366.7344 Q177.5063,366.2344 176.8188,365.1641 Q176.1313,364.0938 176.1313,362.8125 L176.1313,361.6563 Q176.1313,360.3281 176.7484,359.1797 Q177.3656,358.0313 178.4594,357.4141 Q179.5531,356.7969 180.7875,356.7969 Q181.5219,356.7969 182.1703,356.9609 Q182.8188,357.125 183.3656,357.4844 Z "/><text fill="#000000" font-family="sans-serif" font-size="12" lengthAdjust="spacingAndGlyphs" textLength="50" x="199.4" y="366.5195">Question</text><line style="stroke: #A80036; stroke-width: 1.5;" x1="145" x2="273" y1="377.6094" y2="377.6094"/><ellipse cx="155" cy="388.6094" fill="none" rx="3" ry="3" style="stroke: #038048; stroke-width: 1.0;"/><text fill="#000000" font-family="sans-serif" font-size="11" lengthAdjust="spacingAndGlyphs" textLength="98" x="164" y="393.0283">persistenceId : Long</text><ellipse cx="155" cy="402.4453" fill="none" rx="3" ry="3" style="stroke: #038048; stroke-width: 1.0;"/><text fill="#000000" font-family="sans-serif" font-size="11" lengthAdjust="spacingAndGlyphs" textLength="78" x="164" y="406.8643">question : String</text><ellipse cx="155" cy="416.2813" fill="none" rx="3" ry="3" style="stroke: #038048; stroke-width: 1.0;"/><text fill="#000000" font-family="sans-serif" font-size="11" lengthAdjust="spacingAndGlyphs" textLength="104" x="164" y="420.7002">answer : List&lt;String&gt;</text><line style="stroke: #A80036; stroke-width: 1.5;" x1="145" x2="273" y1="427.1172" y2="427.1172"/><path d="M233,216.6094 L233,242.9609 A0,0 0 0 0 233,242.9609 L397.024,242.9609 L266.739,345.4724 L405.024,242.9609 L601,242.9609 A0,0 0 0 0 601,242.9609 L601,226.6094 L591,216.6094 L233,216.6094 A0,0 0 0 0 233,216.6094 " fill="#FBFB77" filter="url(#f1qjq3mpkohnif)" style="stroke: #A80036; stroke-width: 1.0;"/><path d="M591,216.6094 L591,226.6094 L601,226.6094 L591,216.6094 " fill="#FBFB77" style="stroke: #A80036; stroke-width: 1.0;"/><text fill="#000000" font-family="sans-serif" font-size="13" lengthAdjust="spacingAndGlyphs" textLength="347" x="239" y="235.1045">A question definition object: a question and a list of answers</text><!--MD5=[5a3b85c54cc1c79904e0b827443986bf]
class Questionnaire--><rect fill="#FEFECE" filter="url(#f1qjq3mpkohnif)" height="75.6719" id="Questionnaire" style="stroke: #A80036; stroke-width: 1.5;" width="160" x="38" y="191.6094"/><ellipse cx="75.5" cy="207.6094" fill="#ADD1B2" rx="11" ry="11" style="stroke: #A80036; stroke-width: 1.0;"/><path d="M78.2656,203.4844 Q78.4219,203.2656 78.6094,203.1563 Q78.7969,203.0469 79.0156,203.0469 Q79.3906,203.0469 79.625,203.3047 Q79.8594,203.5625 79.8594,204.1719 L79.8594,205.625 Q79.8594,206.2344 79.625,206.5 Q79.3906,206.7656 79.0156,206.7656 Q78.6719,206.7656 78.4688,206.5625 Q78.2656,206.375 78.1563,205.8594 Q78.1094,205.5 77.9219,205.3125 Q77.5938,204.9375 76.9844,204.7188 Q76.375,204.5 75.75,204.5 Q74.9844,204.5 74.3516,204.8281 Q73.7188,205.1563 73.2266,205.9063 Q72.7344,206.6563 72.7344,207.6875 L72.7344,208.7813 Q72.7344,210.0156 73.625,210.8359 Q74.5156,211.6563 76.1094,211.6563 Q77.0469,211.6563 77.7031,211.4063 Q78.0938,211.25 78.5156,210.8125 Q78.7813,210.5469 78.9297,210.4688 Q79.0781,210.3906 79.2813,210.3906 Q79.6094,210.3906 79.8672,210.6484 Q80.125,210.9063 80.125,211.25 Q80.125,211.5938 79.7813,212 Q79.2813,212.5781 78.4844,212.9063 Q77.4063,213.3594 76.1094,213.3594 Q74.5938,213.3594 73.3906,212.7344 Q72.4063,212.2344 71.7188,211.1641 Q71.0313,210.0938 71.0313,208.8125 L71.0313,207.6563 Q71.0313,206.3281 71.6484,205.1797 Q72.2656,204.0313 73.3594,203.4141 Q74.4531,202.7969 75.6875,202.7969 Q76.4219,202.7969 77.0703,202.9609 Q77.7188,203.125 78.2656,203.4844 Z "/><text fill="#000000" font-family="sans-serif" font-size="12" lengthAdjust="spacingAndGlyphs" textLength="78" x="94.5" y="212.5195">Questionnaire</text><line style="stroke: #A80036; stroke-width: 1.5;" x1="39" x2="197" y1="223.6094" y2="223.6094"/><ellipse cx="49" cy="234.6094" fill="none" rx="3" ry="3" style="stroke: #038048; stroke-width: 1.0;"/><text fill="#000000" font-family="sans-serif" font-size="11" lengthAdjust="spacingAndGlyphs" textLength="98" x="58" y="239.0283">persistenceId : Long</text><ellipse cx="49" cy="248.4453" fill="none" rx="3" ry="3" style="stroke: #038048; stroke-width: 1.0;"/><text fill="#000000" font-family="sans-serif" font-size="11" lengthAdjust="spacingAndGlyphs" textLength="134" x="58" y="252.8643">questionnaire_name : String</text><line style="stroke: #A80036; stroke-width: 1.5;" x1="39" x2="197" y1="259.2813" y2="259.2813"/><path d="M38,104.6094 L38,130.9609 A0,0 0 0 0 38,130.9609 L197.581,130.9609 L149.779,191.4214 L205.581,130.9609 L386,130.9609 A0,0 0 0 0 386,130.9609 L386,114.6094 L376,104.6094 L38,104.6094 A0,0 0 0 0 38,104.6094 " fill="#FBFB77" filter="url(#f1qjq3mpkohnif)" style="stroke: #A80036; stroke-width: 1.0;"/><path d="M376,104.6094 L376,114.6094 L386,114.6094 L376,104.6094 " fill="#FBFB77" style="stroke: #A80036; stroke-width: 1.0;"/><text fill="#000000" font-family="sans-serif" font-size="13" lengthAdjust="spacingAndGlyphs" textLength="327" x="44" y="123.1045">A questionnaire definition: a name and a list of questions</text><!--MD5=[711da912d29f34a1347577e232ceddd5]
reverse link Instancequestionnaire to InstanceAnswer--><path d="M755.088,278.0524 C772.706,299.4354 793.386,324.5354 810.663,345.5064 " fill="none" id="Instancequestionnaire&lt;-InstanceAnswer" style="stroke: #A80036; stroke-width: 1.0;"/><polygon fill="#A80036" points="746.714,267.8874,747.4421,275.0616,754.3445,277.1489,753.6164,269.9746,746.714,267.8874" style="stroke: #A80036; stroke-width: 1.0;"/><text fill="#000000" font-family="sans-serif" font-size="13" lengthAdjust="spacingAndGlyphs" textLength="48" x="786" y="312.1045">answers</text><text fill="#000000" font-family="sans-serif" font-size="13" lengthAdjust="spacingAndGlyphs" textLength="5" x="799.4734" y="334.6054">*</text><!--MD5=[25ae772466cf0e874a7ea1d9975e036a]
reverse link Questionnaire to Question--><path d="M145.822,279.2224 C157.913,300.3464 171.975,324.9164 183.759,345.5064 " fill="none" id="Questionnaire&lt;-Question" style="stroke: #A80036; stroke-width: 1.0;"/><polygon fill="#A80036" points="139.335,267.8874,138.8436,275.0817,145.2955,278.3024,145.7869,271.1081,139.335,267.8874" style="stroke: #A80036; stroke-width: 1.0;"/><text fill="#000000" font-family="sans-serif" font-size="13" lengthAdjust="spacingAndGlyphs" textLength="56" x="168" y="312.1045">questions</text><text fill="#000000" font-family="sans-serif" font-size="13" lengthAdjust="spacingAndGlyphs" textLength="5" x="174.3378" y="334.6054">*</text><!--MD5=[a81c43cd13191542f39eb79eb6377abd]
@startuml

package com.company.model {

    note top of InstanceAnswer : Instance of an answer (question and its answer)
    class InstanceAnswer {
        +persistenceId : Long
        +question : String
        +answer : String
    }

    note top of Instancequestionnaire : Questionnaire filled out by a user
    class Instancequestionnaire {
        +persistenceId : Long
        +questionnaire_name : String
    }

    note top of Question : A question definition object: a question and a list of answers
    class Question {
        +persistenceId : Long
        +question : String
        +answer : List<String>
    }

    note top of Questionnaire : A questionnaire definition: a name and a list of questions
    class Questionnaire {
        +persistenceId : Long
        +questionnaire_name : String
    }

}

Instancequestionnaire *- - "*" InstanceAnswer : answers
Questionnaire *- - "*" Question : questions

legend top left
&#9830; Composition relation  &#9826; Aggregation relation  &#42; Multiple relation
endlegend

@enduml

PlantUML version 1.2019.11(Sun Sep 22 12:02:15 CEST 2019)
(EPL source distribution)
Java Runtime: Java(TM) SE Runtime Environment
JVM: Java HotSpot(TM) 64-Bit Server VM
Java Version: 1.8.0_251-b08
Operating System: Windows 10
Default Encoding: UTF8
Language: fr
Country: FR
--></g></svg>